<svg width="17" height="18" viewBox="0 0 17 18" fill="none" xmlns="http://www.w3.org/2000/svg">
<path d="M8.26546 2.17903C8.26546 2.02985 8.32473 1.88677 8.43022 1.78128C8.53571 1.67579 8.67878 1.61653 8.82796 1.61653H15.9042C16.0534 1.61653 16.1965 1.67579 16.302 1.78128C16.4075 1.88677 16.4667 2.02985 16.4667 2.17903C16.4667 2.32822 16.4075 2.47129 16.302 2.57678C16.1965 2.68227 16.0534 2.74153 15.9042 2.74153H8.82796C8.67878 2.74153 8.53571 2.68227 8.43022 2.57678C8.32473 2.47129 8.26546 2.32822 8.26546 2.17903ZM15.9042 3.99441H7.32796C7.17878 3.99441 7.03571 4.05367 6.93022 4.15916C6.82473 4.26465 6.76546 4.40772 6.76546 4.55691C6.76546 4.70609 6.82473 4.84916 6.93022 4.95465C7.03571 5.06014 7.17878 5.11941 7.32796 5.11941H15.9042C16.0534 5.11941 16.1965 5.06014 16.302 4.95465C16.4075 4.84916 16.4667 4.70609 16.4667 4.55691C16.4667 4.40772 16.4075 4.26465 16.302 4.15916C16.1965 4.05367 16.0534 3.99441 15.9042 3.99441ZM15.9042 8.01703H8.82796C8.67878 8.01703 8.53571 8.07629 8.43022 8.18178C8.32473 8.28727 8.26546 8.43035 8.26546 8.57953C8.26546 8.72872 8.32473 8.87179 8.43022 8.97728C8.53571 9.08277 8.67878 9.14203 8.82796 9.14203H15.9042C16.0534 9.14203 16.1965 9.08277 16.302 8.97728C16.4075 8.87179 16.4667 8.72872 16.4667 8.57953C16.4667 8.43035 16.4075 8.28727 16.302 8.18178C16.1965 8.07629 16.0534 8.01703 15.9042 8.01703ZM15.9042 10.3957H7.32796C7.17878 10.3957 7.03571 10.4549 6.93022 10.5604C6.82473 10.6659 6.76546 10.809 6.76546 10.9582C6.76546 11.1073 6.82473 11.2504 6.93022 11.3559C7.03571 11.4614 7.17878 11.5207 7.32796 11.5207H15.9042C16.0534 11.5207 16.1965 11.4614 16.302 11.3559C16.4075 11.2504 16.4667 11.1073 16.4667 10.9582C16.4667 10.809 16.4075 10.6659 16.302 10.5604C16.1965 10.4549 16.0534 10.3957 15.9042 10.3957ZM4.22521 7.13953H0.970215C0.821031 7.13953 0.677956 7.19879 0.572467 7.30428C0.466978 7.40977 0.407715 7.55285 0.407715 7.70203V10.957C0.407715 11.1062 0.466978 11.2493 0.572467 11.3548C0.677956 11.4603 0.821031 11.5195 0.970215 11.5195H4.22521C4.3744 11.5195 4.51747 11.4603 4.62296 11.3548C4.72845 11.2493 4.78771 11.1062 4.78771 10.957V7.70203C4.78771 7.55285 4.72845 7.40977 4.62296 7.30428C4.51747 7.19879 4.3744 7.13953 4.22521 7.13953ZM4.22521 0.738281H0.970215C0.821031 0.738281 0.677956 0.797544 0.572467 0.903034C0.466978 1.00852 0.407715 1.1516 0.407715 1.30078V4.55578C0.407715 4.70497 0.466978 4.84804 0.572467 4.95353C0.677956 5.05902 0.821031 5.11828 0.970215 5.11828H4.22521C4.3744 5.11828 4.51747 5.05902 4.62296 4.95353C4.72845 4.84804 4.78771 4.70497 4.78771 4.55578V1.30078C4.78771 1.1516 4.72845 1.00852 4.62296 0.903034C4.51747 0.797544 4.3744 0.738281 4.22521 0.738281ZM4.22521 13.5408H0.970215C0.821031 13.5408 0.677956 13.6 0.572467 13.7055C0.466978 13.811 0.407715 13.9541 0.407715 14.1033V17.3583C0.407715 17.5075 0.466978 17.6505 0.572467 17.756C0.677956 17.8615 0.821031 17.9208 0.970215 17.9208H4.22521C4.3744 17.9208 4.51747 17.8615 4.62296 17.756C4.72845 17.6505 4.78771 17.5075 4.78771 17.3583V14.1033C4.78771 13.9541 4.72845 13.811 4.62296 13.7055C4.51747 13.6 4.3744 13.5408 4.22521 13.5408ZM15.9042 14.4175H8.82796C8.67878 14.4175 8.53571 14.4768 8.43022 14.5823C8.32473 14.6878 8.26546 14.8308 8.26546 14.98C8.26546 15.1292 8.32473 15.2723 8.43022 15.3778C8.53571 15.4833 8.67878 15.5425 8.82796 15.5425H15.9042C16.0534 15.5425 16.1965 15.4833 16.302 15.3778C16.4075 15.2723 16.4667 15.1292 16.4667 14.98C16.4667 14.8308 16.4075 14.6878 16.302 14.5823C16.1965 14.4768 16.0534 14.4175 15.9042 14.4175ZM15.9042 16.7962H7.32796C7.17878 16.7962 7.03571 16.8554 6.93022 16.9609C6.82473 17.0664 6.76546 17.2095 6.76546 17.3587C6.76546 17.5078 6.82473 17.6509 6.93022 17.7564C7.03571 17.8619 7.17878 17.9212 7.32796 17.9212H15.9042C16.0534 17.9212 16.1965 17.8619 16.302 17.7564C16.4075 17.6509 16.4667 17.5078 16.4667 17.3587C16.4667 17.2095 16.4075 17.0664 16.302 16.9609C16.1965 16.8554 16.0534 16.7962 15.9042 16.7962Z" fill="white"/>
</svg>
