<svg width="380" height="201" viewBox="0 0 380 201" fill="none" xmlns="http://www.w3.org/2000/svg">
<path d="M32.4219 0.0230103C14.7488 0.023011 0.421875 14.3499 0.421875 32.023V37.7584H6.13672C9.95755 37.7584 13.0547 40.8565 13.0547 44.6773C13.0545 48.498 9.95746 51.5953 6.13672 51.5953H0.421875V94.3629H6.76562C10.2391 94.3629 13.0547 97.1784 13.0547 100.652C13.0547 104.125 10.2391 106.941 6.76562 106.941H0.421875V149.709H6.13672C9.95746 149.709 13.0545 152.806 13.0547 156.627C13.0547 160.447 9.95755 163.545 6.13672 163.545H0.421875V168.023C0.421875 185.696 14.7488 200.023 32.4219 200.023H351.422C366.886 200.023 379.422 187.487 379.422 172.023V28.023C379.422 12.559 366.886 0.0230109 351.422 0.0230103H32.4219Z" fill="#9AD3FF"/>
<rect width="41.27" height="8.29791" rx="4.14895" transform="matrix(0.924499 -0.381184 0.17155 0.985175 304.422 18.0628)" fill="white" fill-opacity="0.24"/>
<rect width="41.27" height="8.29791" rx="4.14895" transform="matrix(0.924499 -0.381184 0.17155 0.985175 256.422 15.7545)" fill="white" fill-opacity="0.24"/>
<rect width="41.27" height="8.29791" rx="4.14895" transform="matrix(0.924499 -0.381184 0.17155 0.985175 260.422 37.2974)" fill="white" fill-opacity="0.24"/>
<rect width="41.27" height="8.29791" rx="4.14895" transform="matrix(-0.924499 0.381184 -0.17155 -0.985175 331.422 50.3768)" fill="white" fill-opacity="0.24"/>
<rect width="41.27" height="8.29791" rx="4.14895" transform="matrix(-0.924499 0.381184 -0.17155 -0.985175 379.422 52.6849)" fill="white" fill-opacity="0.24"/>
<rect width="41.27" height="8.29791" rx="4.14895" transform="matrix(-0.924499 0.381184 -0.17155 -0.985175 375.422 31.1422)" fill="white" fill-opacity="0.24"/>
</svg>
