<svg width="379" height="203" viewBox="0 0 379 203" fill="none" xmlns="http://www.w3.org/2000/svg">
<g clip-path="url(#clip0_455_286)">
<path d="M346.422 0.5C364.095 0.5 378.422 14.8269 378.422 32.5V38.6133H372.81C368.951 38.6133 365.823 41.7416 365.823 45.6006C365.823 49.4596 368.951 52.5879 372.81 52.5879H378.422V95.7832H372.174C368.666 95.7833 365.823 98.6268 365.823 102.135C365.823 105.643 368.666 108.487 372.174 108.487H378.422V151.683H372.81C368.951 151.683 365.823 154.811 365.823 158.67C365.823 162.529 368.951 165.657 372.81 165.657H378.422V170.5C378.422 188.173 364.095 202.5 346.422 202.5H28.4224C12.9584 202.5 0.422366 189.964 0.422363 174.5V165.657H6.03467C9.89368 165.657 13.0219 162.529 13.022 158.67C13.022 154.811 9.89371 151.683 6.03467 151.683H0.422363V108.487H6.67041C10.1785 108.487 13.022 105.643 13.022 102.135C13.0217 98.6268 10.1784 95.7833 6.67041 95.7832H0.422363V52.5879H6.03467C9.89371 52.5879 13.022 49.4596 13.022 45.6006C13.0219 41.7416 9.8937 38.6133 6.03467 38.6133H0.422363V28.5C0.422365 13.036 12.9584 0.5 28.4224 0.5H346.422Z" fill="#C2B5FF"/>
</g>
<rect width="41.27" height="8.29791" rx="4.14895" transform="matrix(0.924499 -0.381184 0.17155 0.985175 302.422 18.5398)" fill="white" fill-opacity="0.24"/>
<rect width="41.27" height="8.29791" rx="4.14895" transform="matrix(0.924499 -0.381184 0.17155 0.985175 254.422 16.2314)" fill="white" fill-opacity="0.24"/>
<rect width="41.27" height="8.29791" rx="4.14895" transform="matrix(0.924499 -0.381184 0.17155 0.985175 258.422 37.7744)" fill="white" fill-opacity="0.24"/>
<rect width="41.27" height="8.29791" rx="4.14895" transform="matrix(-0.924499 0.381184 -0.17155 -0.985175 329.422 50.8538)" fill="white" fill-opacity="0.24"/>
<rect width="41.27" height="8.29791" rx="4.14895" transform="matrix(-0.924499 0.381184 -0.17155 -0.985175 377.422 53.1619)" fill="white" fill-opacity="0.24"/>
<rect width="41.27" height="8.29791" rx="4.14895" transform="matrix(-0.924499 0.381184 -0.17155 -0.985175 373.422 31.6191)" fill="white" fill-opacity="0.24"/>
<defs>
<clipPath id="clip0_455_286">
<rect x="0.422363" y="0.5" width="378" height="202" rx="34" fill="white"/>
</clipPath>
</defs>
</svg>
