<svg width="379" height="200" viewBox="0 0 379 200" fill="none" xmlns="http://www.w3.org/2000/svg">
<path d="M347 0C364.673 7.08686e-07 379 14.3269 379 32V37.7354H373.285C369.464 37.7354 366.367 40.8335 366.367 44.6543C366.367 48.475 369.464 51.5723 373.285 51.5723H379V94.3398H372.656C369.183 94.3398 366.367 97.1554 366.367 100.629C366.367 104.102 369.183 106.918 372.656 106.918H379V149.686H373.285C369.464 149.686 366.367 152.783 366.367 156.604C366.367 160.424 369.464 163.522 373.285 163.522H379V168C379 185.673 364.673 200 347 200H28C12.536 200 1.6159e-06 187.464 0 172V28C0 12.536 12.536 6.201e-07 28 0H347Z" fill="#B6E4CA"/>
</svg>
