<svg width="379" height="202" viewBox="0 0 379 202" fill="none" xmlns="http://www.w3.org/2000/svg">
<g clip-path="url(#clip0_443_241)">
<path d="M346.422 0C364.095 0 378.422 14.3269 378.422 32V38.1133H372.81C368.951 38.1133 365.822 41.2416 365.822 45.1006C365.822 48.9596 368.951 52.0879 372.81 52.0879H378.422V95.2832H372.174C368.666 95.2833 365.823 98.1268 365.822 101.635C365.822 105.143 368.666 107.987 372.174 107.987H378.422V151.183H372.81C368.951 151.183 365.822 154.311 365.822 158.17C365.822 162.029 368.951 165.157 372.81 165.157H378.422V170C378.422 187.673 364.095 202 346.422 202H28.4219C12.9579 202 0.421878 189.464 0.421875 174V165.157H6.03418C9.89319 165.157 13.0214 162.029 13.0215 158.17C13.0215 154.311 9.89323 151.183 6.03418 151.183H0.421875V107.987H6.66992C10.1781 107.987 13.0215 105.143 13.0215 101.635C13.0212 98.1268 10.1779 95.2833 6.66992 95.2832H0.421875V52.0879H6.03418C9.89323 52.0879 13.0215 48.9596 13.0215 45.1006C13.0215 41.2416 9.89321 38.1133 6.03418 38.1133H0.421875V28C0.421877 12.536 12.9579 0 28.4219 0H346.422Z" fill="#FFB998"/>
</g>
<rect width="41.27" height="8.29791" rx="4.14895" transform="matrix(0.924499 -0.381184 0.17155 0.985175 302.422 18.0398)" fill="white" fill-opacity="0.24"/>
<rect width="41.27" height="8.29791" rx="4.14895" transform="matrix(0.924499 -0.381184 0.17155 0.985175 254.422 15.7314)" fill="white" fill-opacity="0.24"/>
<rect width="41.27" height="8.29791" rx="4.14895" transform="matrix(0.924499 -0.381184 0.17155 0.985175 258.422 37.2744)" fill="white" fill-opacity="0.24"/>
<rect width="41.27" height="8.29791" rx="4.14895" transform="matrix(-0.924499 0.381184 -0.17155 -0.985175 329.422 50.3538)" fill="white" fill-opacity="0.24"/>
<rect width="41.27" height="8.29791" rx="4.14895" transform="matrix(-0.924499 0.381184 -0.17155 -0.985175 377.422 52.6619)" fill="white" fill-opacity="0.24"/>
<rect width="41.27" height="8.29791" rx="4.14895" transform="matrix(-0.924499 0.381184 -0.17155 -0.985175 373.422 31.1191)" fill="white" fill-opacity="0.24"/>
<defs>
<clipPath id="clip0_443_241">
<rect x="0.421875" width="378" height="202" rx="34" fill="white"/>
</clipPath>
</defs>
</svg>
