<svg width="379" height="203" viewBox="0 0 379 203" fill="none" xmlns="http://www.w3.org/2000/svg">
<g clip-path="url(#clip0_466_367)">
<path d="M346.578 0.761505C364.251 0.761505 378.578 15.0884 378.578 32.7615V38.8748H372.965C369.106 38.8748 365.978 42.0031 365.978 45.8621C365.978 49.7211 369.106 52.8494 372.965 52.8494H378.578V96.0447H372.33C368.822 96.0448 365.978 98.8883 365.978 102.396C365.978 105.904 368.821 108.749 372.33 108.749H378.578V151.944H372.965C369.106 151.944 365.978 155.072 365.978 158.931C365.978 162.79 369.106 165.919 372.965 165.919H378.578V170.762C378.578 188.435 364.251 202.762 346.578 202.762H28.5776C13.1137 202.762 0.577639 190.225 0.577637 174.762V165.919H6.18994C10.049 165.919 13.1772 162.79 13.1772 158.931C13.1772 155.072 10.049 151.944 6.18994 151.944H0.577637V108.749H6.82568C10.3338 108.749 13.1772 105.904 13.1772 102.396C13.177 98.8883 10.3337 96.0448 6.82568 96.0447H0.577637V52.8494H6.18994C10.049 52.8494 13.1772 49.7211 13.1772 45.8621C13.1772 42.0031 10.049 38.8748 6.18994 38.8748H0.577637V28.7615C0.577638 13.2975 13.1137 0.761505 28.5776 0.761505H346.578Z" fill="#86C7CC"/>
</g>
<rect width="41.27" height="8.29791" rx="4.14895" transform="matrix(0.924499 -0.381184 0.17155 0.985175 302.578 18.8013)" fill="white" fill-opacity="0.24"/>
<rect width="41.27" height="8.29791" rx="4.14895" transform="matrix(0.924499 -0.381184 0.17155 0.985175 254.578 16.4929)" fill="white" fill-opacity="0.24"/>
<rect width="41.27" height="8.29791" rx="4.14895" transform="matrix(0.924499 -0.381184 0.17155 0.985175 258.578 38.0359)" fill="white" fill-opacity="0.24"/>
<rect width="41.27" height="8.29791" rx="4.14895" transform="matrix(-0.924499 0.381184 -0.17155 -0.985175 329.578 51.1152)" fill="white" fill-opacity="0.24"/>
<rect width="41.27" height="8.29791" rx="4.14895" transform="matrix(-0.924499 0.381184 -0.17155 -0.985175 377.578 53.4233)" fill="white" fill-opacity="0.24"/>
<rect width="41.27" height="8.29791" rx="4.14895" transform="matrix(-0.924499 0.381184 -0.17155 -0.985175 373.578 31.8806)" fill="white" fill-opacity="0.24"/>
<defs>
<clipPath id="clip0_466_367">
<rect x="0.577637" y="0.761505" width="378" height="202" rx="34" fill="white"/>
</clipPath>
</defs>
</svg>
