<svg width="25" height="24" viewBox="0 0 25 24" fill="none" xmlns="http://www.w3.org/2000/svg">
<path d="M4.40771 13H10.4077C10.6729 13 10.9273 12.8946 11.1148 12.7071C11.3024 12.5196 11.4077 12.2652 11.4077 12V4C11.4077 3.73478 11.3024 3.48043 11.1148 3.29289C10.9273 3.10536 10.6729 3 10.4077 3H4.40771C4.1425 3 3.88814 3.10536 3.70061 3.29289C3.51307 3.48043 3.40771 3.73478 3.40771 4V12C3.40771 12.2652 3.51307 12.5196 3.70061 12.7071C3.88814 12.8946 4.1425 13 4.40771 13ZM3.40771 20C3.40771 20.2652 3.51307 20.5196 3.70061 20.7071C3.88814 20.8946 4.1425 21 4.40771 21H10.4077C10.6729 21 10.9273 20.8946 11.1148 20.7071C11.3024 20.5196 11.4077 20.2652 11.4077 20V16C11.4077 15.7348 11.3024 15.4804 11.1148 15.2929C10.9273 15.1054 10.6729 15 10.4077 15H4.40771C4.1425 15 3.88814 15.1054 3.70061 15.2929C3.51307 15.4804 3.40771 15.7348 3.40771 16V20ZM13.4077 20C13.4077 20.2652 13.5131 20.5196 13.7006 20.7071C13.8881 20.8946 14.1425 21 14.4077 21H20.4077C20.6729 21 20.9273 20.8946 21.1148 20.7071C21.3024 20.5196 21.4077 20.2652 21.4077 20V13C21.4077 12.7348 21.3024 12.4804 21.1148 12.2929C20.9273 12.1054 20.6729 12 20.4077 12H14.4077C14.1425 12 13.8881 12.1054 13.7006 12.2929C13.5131 12.4804 13.4077 12.7348 13.4077 13V20ZM14.4077 10H20.4077C20.6729 10 20.9273 9.89464 21.1148 9.70711C21.3024 9.51957 21.4077 9.26522 21.4077 9V4C21.4077 3.73478 21.3024 3.48043 21.1148 3.29289C20.9273 3.10536 20.6729 3 20.4077 3H14.4077C14.1425 3 13.8881 3.10536 13.7006 3.29289C13.5131 3.48043 13.4077 3.73478 13.4077 4V9C13.4077 9.26522 13.5131 9.51957 13.7006 9.70711C13.8881 9.89464 14.1425 10 14.4077 10Z" fill="white"/>
</svg>
