<svg width="29" height="29" viewBox="0 0 29 29" fill="none" xmlns="http://www.w3.org/2000/svg">
<path fill-rule="evenodd" clip-rule="evenodd" d="M14.1253 2.55029V10.1336C14.1253 10.5978 14.3097 11.0429 14.6379 11.3711C14.9661 11.6993 15.4112 11.8836 15.8753 11.8836H23.4587V23.5503C23.4587 24.1691 23.2128 24.7626 22.7752 25.2002C22.3377 25.6378 21.7442 25.8836 21.1253 25.8836H7.12533C6.50649 25.8836 5.91299 25.6378 5.47541 25.2002C5.03782 24.7626 4.79199 24.1691 4.79199 23.5503V4.88363C4.79199 4.26479 5.03782 3.6713 5.47541 3.23371C5.91299 2.79613 6.50649 2.55029 7.12533 2.55029H14.1253ZM12.9715 14.0396C12.6922 15.8165 11.763 17.4264 10.364 18.557C9.32916 19.3923 10.2753 21.0315 11.5167 20.5543C13.1953 19.9078 15.0542 19.9078 16.7328 20.5543C17.9742 21.0326 18.9203 19.3935 17.8855 18.557C16.4865 17.4264 15.5573 15.8165 15.278 14.0396C15.0715 12.726 13.178 12.7248 12.9715 14.0396ZM14.1253 16.9038L15.0657 18.5301H13.1873L14.1253 16.9038ZM16.4587 2.60046C16.9007 2.69421 17.306 2.91428 17.6253 3.23396L22.775 8.38363C23.0947 8.70297 23.3147 9.10827 23.4085 9.55029H16.4587V2.60046Z" fill="#318179"/>
</svg>
