<svg width="17" height="18" viewBox="0 0 17 18" fill="none" xmlns="http://www.w3.org/2000/svg">
<path d="M8.26546 2.17891C8.26546 2.02972 8.32473 1.88665 8.43022 1.78116C8.53571 1.67567 8.67878 1.61641 8.82796 1.61641H15.9042C16.0534 1.61641 16.1965 1.67567 16.302 1.78116C16.4075 1.88665 16.4667 2.02972 16.4667 2.17891C16.4667 2.32809 16.4075 2.47117 16.302 2.57666C16.1965 2.68215 16.0534 2.74141 15.9042 2.74141H8.82796C8.67878 2.74141 8.53571 2.68215 8.43022 2.57666C8.32473 2.47117 8.26546 2.32809 8.26546 2.17891ZM15.9042 3.99428H7.32796C7.17878 3.99428 7.03571 4.05355 6.93022 4.15904C6.82473 4.26453 6.76546 4.4076 6.76546 4.55678C6.76546 4.70597 6.82473 4.84904 6.93022 4.95453C7.03571 5.06002 7.17878 5.11928 7.32796 5.11928H15.9042C16.0534 5.11928 16.1965 5.06002 16.302 4.95453C16.4075 4.84904 16.4667 4.70597 16.4667 4.55678C16.4667 4.4076 16.4075 4.26453 16.302 4.15904C16.1965 4.05355 16.0534 3.99428 15.9042 3.99428ZM15.9042 8.01691H8.82796C8.67878 8.01691 8.53571 8.07617 8.43022 8.18166C8.32473 8.28715 8.26546 8.43022 8.26546 8.57941C8.26546 8.72859 8.32473 8.87167 8.43022 8.97716C8.53571 9.08265 8.67878 9.14191 8.82796 9.14191H15.9042C16.0534 9.14191 16.1965 9.08265 16.302 8.97716C16.4075 8.87167 16.4667 8.72859 16.4667 8.57941C16.4667 8.43022 16.4075 8.28715 16.302 8.18166C16.1965 8.07617 16.0534 8.01691 15.9042 8.01691ZM15.9042 10.3955H7.32796C7.17878 10.3955 7.03571 10.4548 6.93022 10.5603C6.82473 10.6658 6.76546 10.8088 6.76546 10.958C6.76546 11.1072 6.82473 11.2503 6.93022 11.3558C7.03571 11.4613 7.17878 11.5205 7.32796 11.5205H15.9042C16.0534 11.5205 16.1965 11.4613 16.302 11.3558C16.4075 11.2503 16.4667 11.1072 16.4667 10.958C16.4667 10.8088 16.4075 10.6658 16.302 10.5603C16.1965 10.4548 16.0534 10.3955 15.9042 10.3955ZM4.22521 7.13941H0.970215C0.821031 7.13941 0.677956 7.19867 0.572467 7.30416C0.466978 7.40965 0.407715 7.55272 0.407715 7.70191V10.9569C0.407715 11.1061 0.466978 11.2492 0.572467 11.3547C0.677956 11.4601 0.821031 11.5194 0.970215 11.5194H4.22521C4.3744 11.5194 4.51747 11.4601 4.62296 11.3547C4.72845 11.2492 4.78771 11.1061 4.78771 10.9569V7.70191C4.78771 7.55272 4.72845 7.40965 4.62296 7.30416C4.51747 7.19867 4.3744 7.13941 4.22521 7.13941ZM4.22521 0.738159H0.970215C0.821031 0.738159 0.677956 0.797422 0.572467 0.902912C0.466978 1.0084 0.407715 1.15147 0.407715 1.30066V4.55566C0.407715 4.70484 0.466978 4.84792 0.572467 4.95341C0.677956 5.0589 0.821031 5.11816 0.970215 5.11816H4.22521C4.3744 5.11816 4.51747 5.0589 4.62296 4.95341C4.72845 4.84792 4.78771 4.70484 4.78771 4.55566V1.30066C4.78771 1.15147 4.72845 1.0084 4.62296 0.902912C4.51747 0.797422 4.3744 0.738159 4.22521 0.738159ZM4.22521 13.5407H0.970215C0.821031 13.5407 0.677956 13.5999 0.572467 13.7054C0.466978 13.8109 0.407715 13.954 0.407715 14.1032V17.3582C0.407715 17.5073 0.466978 17.6504 0.572467 17.7559C0.677956 17.8614 0.821031 17.9207 0.970215 17.9207H4.22521C4.3744 17.9207 4.51747 17.8614 4.62296 17.7559C4.72845 17.6504 4.78771 17.5073 4.78771 17.3582V14.1032C4.78771 13.954 4.72845 13.8109 4.62296 13.7054C4.51747 13.5999 4.3744 13.5407 4.22521 13.5407ZM15.9042 14.4174H8.82796C8.67878 14.4174 8.53571 14.4767 8.43022 14.5822C8.32473 14.6877 8.26546 14.8307 8.26546 14.9799C8.26546 15.1291 8.32473 15.2722 8.43022 15.3777C8.53571 15.4831 8.67878 15.5424 8.82796 15.5424H15.9042C16.0534 15.5424 16.1965 15.4831 16.302 15.3777C16.4075 15.2722 16.4667 15.1291 16.4667 14.9799C16.4667 14.8307 16.4075 14.6877 16.302 14.5822C16.1965 14.4767 16.0534 14.4174 15.9042 14.4174ZM15.9042 16.796H7.32796C7.17878 16.796 7.03571 16.8553 6.93022 16.9608C6.82473 17.0663 6.76546 17.2093 6.76546 17.3585C6.76546 17.5077 6.82473 17.6508 6.93022 17.7563C7.03571 17.8618 7.17878 17.921 7.32796 17.921H15.9042C16.0534 17.921 16.1965 17.8618 16.302 17.7563C16.4075 17.6508 16.4667 17.5077 16.4667 17.3585C16.4667 17.2093 16.4075 17.0663 16.302 16.9608C16.1965 16.8553 16.0534 16.796 15.9042 16.796Z" fill="#318179"/>
</svg>
