<svg width="65" height="65" viewBox="0 0 65 65" fill="none" xmlns="http://www.w3.org/2000/svg">
<circle cx="32.7886" cy="32.2016" r="32" fill="white"/>
<path d="M32.7886 20.2016C34.3799 20.2016 35.906 20.8337 37.0312 21.959C38.1564 23.0842 38.7886 24.6103 38.7886 26.2016C38.7886 27.7929 38.1564 29.319 37.0312 30.4442C35.906 31.5695 34.3799 32.2016 32.7886 32.2016C31.1973 32.2016 29.6712 31.5695 28.5459 30.4442C27.4207 29.319 26.7886 27.7929 26.7886 26.2016C26.7886 24.6103 27.4207 23.0842 28.5459 21.959C29.6712 20.8337 31.1973 20.2016 32.7886 20.2016ZM32.7886 44.2016C32.7886 44.2016 44.7886 44.2016 44.7886 41.2016C44.7886 37.6016 38.9386 33.7016 32.7886 33.7016C26.6386 33.7016 20.7886 37.6016 20.7886 41.2016C20.7886 44.2016 32.7886 44.2016 32.7886 44.2016Z" fill="#A154BA"/>
</svg>
