<svg width="65" height="64" viewBox="0 0 65 64" fill="none" xmlns="http://www.w3.org/2000/svg">
<circle cx="32.5" cy="32" r="32" fill="white"/>
<path d="M32.5 20C34.0913 20 35.6174 20.6321 36.7426 21.7574C37.8679 22.8826 38.5 24.4087 38.5 26C38.5 27.5913 37.8679 29.1174 36.7426 30.2426C35.6174 31.3679 34.0913 32 32.5 32C30.9087 32 29.3826 31.3679 28.2574 30.2426C27.1321 29.1174 26.5 27.5913 26.5 26C26.5 24.4087 27.1321 22.8826 28.2574 21.7574C29.3826 20.6321 30.9087 20 32.5 20ZM32.5 44C32.5 44 44.5 44 44.5 41C44.5 37.4 38.65 33.5 32.5 33.5C26.35 33.5 20.5 37.4 20.5 41C20.5 44 32.5 44 32.5 44Z" fill="#19A0AA"/>
</svg>
