<svg width="65" height="65" viewBox="0 0 65 65" fill="none" xmlns="http://www.w3.org/2000/svg">
<circle cx="32.6333" cy="32.4163" r="32" fill="white"/>
<path d="M32.6333 20.4163C34.2246 20.4163 35.7507 21.0485 36.8759 22.1737C38.0012 23.2989 38.6333 24.825 38.6333 26.4163C38.6333 28.0076 38.0012 29.5337 36.8759 30.659C35.7507 31.7842 34.2246 32.4163 32.6333 32.4163C31.042 32.4163 29.5159 31.7842 28.3907 30.659C27.2654 29.5337 26.6333 28.0076 26.6333 26.4163C26.6333 24.825 27.2654 23.2989 28.3907 22.1737C29.5159 21.0485 31.042 20.4163 32.6333 20.4163ZM32.6333 44.4163C32.6333 44.4163 44.6333 44.4163 44.6333 41.4163C44.6333 37.8163 38.7833 33.9163 32.6333 33.9163C26.4833 33.9163 20.6333 37.8163 20.6333 41.4163C20.6333 44.4163 32.6333 44.4163 32.6333 44.4163Z" fill="#3396E3"/>
</svg>
