<svg width="36" height="36" viewBox="0 0 36 36" fill="none" xmlns="http://www.w3.org/2000/svg">
<path fill-rule="evenodd" clip-rule="evenodd" d="M23.1274 8.46451C22.9206 8.13397 22.6158 7.87615 22.2555 7.72693C21.8953 7.57772 21.4974 7.54454 21.1174 7.63201L18.4204 8.25151C18.144 8.31504 17.8568 8.31504 17.5804 8.25151L14.8834 7.63201C14.5034 7.54454 14.1056 7.57772 13.7454 7.72693C13.3851 7.87615 13.0803 8.13397 12.8734 8.46451L11.4034 10.8105C11.2534 11.0505 11.0509 11.253 10.8109 11.4045L8.46495 12.8745C8.13497 13.0812 7.87753 13.3855 7.72835 13.7451C7.57916 14.1048 7.54565 14.502 7.63245 14.8815L8.25195 17.5815C8.31524 17.8574 8.31524 18.1441 8.25195 18.42L7.63245 21.1185C7.54531 21.4983 7.57866 21.8958 7.72786 22.2557C7.87705 22.6157 8.13469 22.9202 8.46495 23.127L10.8109 24.597C11.0509 24.747 11.2534 24.9495 11.4049 25.1895L12.8749 27.5355C13.2979 28.212 14.1049 28.5465 14.8834 28.368L17.5804 27.7485C17.8568 27.685 18.144 27.685 18.4204 27.7485L21.1189 28.368C21.4987 28.4551 21.8962 28.4218 22.2562 28.2726C22.6161 28.1234 22.9207 27.8658 23.1274 27.5355L24.5974 25.1895C24.7474 24.9495 24.9499 24.747 25.1899 24.597L27.5374 23.127C27.8677 22.9199 28.1252 22.6151 28.2742 22.2548C28.4231 21.8946 28.4561 21.4969 28.3684 21.117L27.7504 18.42C27.6869 18.1436 27.6869 17.8564 27.7504 17.58L28.3699 14.8815C28.4572 14.5019 28.4241 14.1045 28.2752 13.7446C28.1263 13.3846 27.8689 13.08 27.5389 12.873L25.1914 11.403C24.9518 11.2527 24.7492 11.0502 24.5989 10.8105L23.1274 8.46451ZM22.3729 14.655C22.4657 14.4844 22.4887 14.2845 22.4371 14.0973C22.3854 13.9101 22.2632 13.7502 22.0961 13.6513C21.929 13.5524 21.73 13.5221 21.541 13.5669C21.3521 13.6117 21.1879 13.7281 21.0829 13.8915L17.1604 20.5305L14.7919 18.2625C14.7217 18.1904 14.6376 18.1331 14.5447 18.0942C14.4519 18.0552 14.3521 18.0354 14.2514 18.0358C14.1507 18.0362 14.0511 18.057 13.9586 18.0967C13.866 18.1365 13.7825 18.1945 13.7128 18.2672C13.6432 18.34 13.5889 18.426 13.5533 18.5202C13.5176 18.6144 13.5013 18.7148 13.5052 18.8154C13.5092 18.916 13.5334 19.0148 13.5764 19.1059C13.6194 19.197 13.6803 19.2785 13.7554 19.3455L16.8064 22.269C16.8881 22.3471 16.9863 22.4057 17.0938 22.4405C17.2013 22.4753 17.3153 22.4853 17.4272 22.4699C17.5391 22.4545 17.6461 22.414 17.7402 22.3514C17.8343 22.2888 17.913 22.2058 17.9704 22.1085L22.3729 14.655Z" fill="#222222"/>
</svg>
